<svg xmlns="http://www.w3.org/2000/svg" width="224" height="59" viewBox="0 0 224 59">
    <g fill="none" fill-rule="evenodd">
        <path fill="#232B24" d="M63.434 24.779h12.885v2.648h-4.98v14.201h-2.925V27.427h-4.98zM78.906 41.5H81.9V29.084h-2.994v12.418zm-.355-16.394c0-.544.16-.973.482-1.288.321-.314.778-.472 1.37-.472.575 0 1.028.158 1.358.472.33.315.494.744.494 1.288s-.165.973-.494 1.287c-.33.315-.783.472-1.358.472-.592 0-1.049-.157-1.37-.472-.321-.314-.482-.743-.482-1.287zM97.935 31.455c.795-1.785 2.19-2.678 4.186-2.678 1.472 0 2.614.502 3.425 1.505.778.952 1.167 2.278 1.167 3.977v7.242h-3.019v-7.242c0-.918-.22-1.61-.66-2.077-.44-.468-1.057-.702-1.852-.702-.795 0-1.446.349-1.953 1.045-.508.698-.779 1.751-.812 3.162v5.814h-2.994v-7.242c0-.918-.22-1.61-.66-2.077-.44-.468-1.057-.702-1.852-.702-.795 0-1.476.357-2.042 1.07-.567.715-.867 1.786-.901 3.214V41.5h-2.994V29.109h2.613l.33 2.142c.812-1.65 2.114-2.474 3.908-2.474 1.031 0 1.89.239 2.575.714.685.477 1.196 1.131 1.535 1.964M122.012 31.455c.795-1.785 2.19-2.678 4.187-2.678 1.471 0 2.613.502 3.425 1.505.778.952 1.167 2.278 1.167 3.977v7.242h-3.02v-7.242c0-.918-.22-1.61-.659-2.077-.44-.468-1.057-.702-1.852-.702-.795 0-1.446.349-1.954 1.045-.507.698-.778 1.751-.812 3.162v5.814h-2.993v-7.242c0-.918-.22-1.61-.66-2.077-.44-.468-1.058-.702-1.852-.702-.796 0-1.476.357-2.043 1.07-.567.715-.867 1.786-.9 3.214V41.5h-2.994V29.109h2.613l.33 2.142c.812-1.65 2.114-2.474 3.907-2.474 1.031 0 1.89.239 2.575.714.685.477 1.197 1.131 1.535 1.964M139.772 31.174c-.845 0-1.505.277-1.979.829-.473.552-.752 1.262-.837 2.129h5.252c0-1.343-.423-2.244-1.269-2.703-.32-.17-.71-.255-1.167-.255m4.91 1.3c.211.714.317 1.369.317 1.964s-.034 1.13-.101 1.606h-7.967c.033 1.003.279 1.819.736 2.448.456.629 1.15.943 2.08.943 1.235 0 1.97-.543 2.208-1.631h3.019c-.203 1.24-.77 2.218-1.7 2.932-.965.748-2.14 1.121-3.527 1.121-1.624 0-2.985-.594-4.085-1.784-1.133-1.241-1.7-2.83-1.7-4.768 0-1.99.567-3.587 1.7-4.794 1.082-1.156 2.444-1.734 4.085-1.734 1.708 0 3.036.604 3.983 1.81a5.67 5.67 0 0 1 .952 1.887M151.57 31.557c.745-1.785 1.86-2.678 3.35-2.678.287 0 .65.06 1.09.179l-.05 3.009a6.605 6.605 0 0 0-1.396-.154c-1.996 0-2.994 1.386-2.994 4.156v5.432h-2.993V29.083h2.993v2.474zM160.222 29.109l2.486 8.848 2.36-8.16h2.715l2.36 8.185 2.511-8.873h2.994l-4.06 12.392h-2.943l-2.283-7.42-2.233 7.42h-2.968l-4.085-12.392zM183.006 31.174c-.846 0-1.506.277-1.98.829-.473.552-.752 1.262-.837 2.129h5.252c0-1.343-.423-2.244-1.269-2.703-.32-.17-.71-.255-1.166-.255m4.91 1.3c.21.714.316 1.369.316 1.964s-.034 1.13-.101 1.606h-7.967c.033 1.003.28 1.819.736 2.448.457.629 1.15.943 2.08.943 1.235 0 1.97-.543 2.208-1.631h3.019c-.203 1.24-.77 2.218-1.7 2.932-.964.748-2.14 1.121-3.527 1.121-1.623 0-2.985-.594-4.085-1.784-1.133-1.241-1.7-2.83-1.7-4.768 0-1.99.567-3.587 1.7-4.794 1.083-1.156 2.445-1.734 4.085-1.734 1.709 0 3.036.604 3.983 1.81.423.545.74 1.173.952 1.887M194.803 31.557c.745-1.785 1.86-2.678 3.35-2.678.287 0 .65.06 1.09.179l-.05 3.009a6.6 6.6 0 0 0-1.396-.154c-1.996 0-2.994 1.386-2.994 4.156v5.432h-2.993V29.083h2.993v2.474zM206.728 35.457l-1.37 1.148v4.896h-2.994V24.009h2.994v9.46l4.871-4.36h4.06l-5.455 4.59 5.76 7.802h-3.654zM223.905 41.195c-1.116.441-1.996.662-2.64.662-.642 0-1.204-.076-1.686-.229a3.812 3.812 0 0 1-1.281-.688c-.779-.697-1.167-1.658-1.167-2.882v-6.935h-1.726v-2.014h1.726v-3.264h2.993v3.264h3.35v2.014h-3.35v6.833c0 1.02.482 1.53 1.447 1.53.49 0 1.124-.136 1.902-.408l.432 2.117z"/>
        <path fill="#EEE" d="M57.814.289v11.565H34.796v46.624H23.018V.288z"/>
        <path fill="#205048" d="M0 11.854h23.018V.289H0z"/>
    </g>
</svg>
